<?xml version="1.0" standalone="no"?><!DOCTYPE svg PUBLIC "-//W3C//DTD SVG 1.1//EN" "http://www.w3.org/Graphics/SVG/1.1/DTD/svg11.dtd"><svg t="1685772882369" class="icon" viewBox="0 0 1024 1024" version="1.1" xmlns="http://www.w3.org/2000/svg" p-id="3472" xmlns:xlink="http://www.w3.org/1999/xlink" width="200" height="200"><path d="M909.994218 870.181971H600.027438l-199.061236 147.874061c-8.531196 5.687464-22.749855 8.531196-34.124783 2.843731s-14.21866-19.906124-14.218659-31.281051v-119.436741H272.998265c-59.718371 0-102.37435-48.343443-102.374349-110.905545V344.091564C170.623916 284.373193 213.279895 236.02975 272.998265 236.02975H909.994218c59.718371 0 113.749277 51.187175 113.749277 110.905546v412.34113c0 62.562102-54.030907 110.905545-113.749277 110.905545z m82.468226-523.246675c0-36.968515-36.968515-79.624494-82.468226-79.624494H272.998265c-45.499711 0-71.093298 39.812247-71.093298 76.780762v415.184862c0 39.812247 25.593587 79.624494 71.093298 79.624494h79.624495c8.531196 0 17.062392 2.843732 22.749855 8.531196 5.687464 5.687464 8.531196 17.062392 8.531196 25.593587v119.436741l204.748699-147.87406c5.687464-2.843732 11.374928-2.843732 19.906123-2.843732H909.994218c42.655979 0 82.468226-34.124783 82.468226-79.624494V346.935296z m-159.248988 176.311379h-159.248988c-8.531196 0-14.21866-5.687464-17.062392-14.218659 0-8.531196 5.687464-14.21866 14.21866-17.062392H833.213456c8.531196 0 14.21866 5.687464 17.062392 14.21866 0 8.531196-5.687464 17.062392-17.062392 17.062391z m-2.843732-79.624494H767.807622c-8.531196 0-14.21866-5.687464-17.062392-14.218659 0-8.531196 5.687464-14.21866 14.21866-17.062392h62.562102c8.531196 0 14.21866 5.687464 17.062392 14.21866 0 8.531196-5.687464 17.062392-14.21866 17.062391z m-125.124205 0h-159.248988c-8.531196 0-14.21866-5.687464-17.062392-14.218659 0-8.531196 5.687464-14.21866 14.21866-17.062392h159.248988c8.531196 0 14.21866 5.687464 17.062392 14.21866 0 8.531196-5.687464 17.062392-14.21866 17.062391z m-224.654823 0h-127.967936c-8.531196 0-14.21866-5.687464-17.062392-14.218659 0-8.531196 5.687464-14.21866 14.21866-17.062392h127.967937c8.531196 0 14.21866 5.687464 17.062391 14.21866s-5.687464 17.062392-14.21866 17.062391z m-127.967936 48.343443h62.562102c8.531196 0 14.21866 5.687464 17.062392 14.21866 0 8.531196-5.687464 14.21866-14.21866 17.062391H352.62276c-8.531196 0-14.21866-5.687464-14.21866-14.218659s5.687464-17.062392 14.21866-17.062392z m0 96.686886H511.871748c8.531196 0 14.21866 5.687464 17.062391 14.21866 0 8.531196-5.687464 14.21866-14.218659 17.062391H352.62276c-8.531196 0-14.21866-5.687464-17.062392-14.21866 0-8.531196 8.531196-17.062392 17.062392-17.062391z m0 79.624494h62.562102c8.531196 0 14.21866 5.687464 17.062392 14.21866 0 8.531196-5.687464 14.21866-14.21866 17.062391H352.62276c-8.531196 2.843732-17.062392-2.843732-19.906124-11.374928-2.843732-8.531196 2.843732-17.062392 11.374928-19.906123h8.531196z m130.811668 0h110.905546c8.531196 0 14.21866 5.687464 17.062391 14.21866 0 8.531196-5.687464 14.21866-14.218659 17.062391h-113.749278c-8.531196 0-14.21866-5.687464-17.062391-14.218659 0-8.531196 5.687464-17.062392 17.062391-17.062392-2.843732 0-2.843732 0 0 0z m0-145.030329c-8.531196 0-14.21866-5.687464-17.062391-14.218659 0-8.531196 5.687464-14.21866 14.218659-17.062392h130.811669c8.531196 0 14.21866 5.687464 17.062392 14.21866 0 8.531196-5.687464 14.21866-14.21866 17.062391H483.434428z m76.780763 79.624495c0-8.531196 8.531196-14.21866 17.062391-14.21866h159.248988c8.531196 0 14.21866 5.687464 17.062392 14.21866 0 8.531196-5.687464 14.21866-14.21866 17.062391H577.277582c-8.531196 0-17.062392-8.531196-17.062391-17.062391z m236.02975-14.21866h31.281051c8.531196 0 14.21866 5.687464 17.062392 14.21866 0 8.531196-5.687464 14.21866-14.21866 17.062391H796.244941c-8.531196 0-14.21866-5.687464-17.062392-14.21866 0-8.531196 8.531196-17.062392 17.062392-17.062391z m25.593587-432.247254c-2.843732 0 0-14.21866 0-31.281051v-17.062392c0-45.499711-34.124783-76.780762-88.15569-76.780762H102.37435c-56.874639 0-71.093298 45.499711-71.093299 76.780762v415.184862c0 11.374928 0 36.968515 11.374928 51.187175 11.374928 11.374928 34.124783 19.906124 31.281051 25.593588-2.843732 8.531196-17.062392 11.374928-25.593587 11.374927s-17.062392-2.843732-22.749856-8.531195c-22.749855-19.906124-25.593587-48.343443-25.593587-79.624495V108.061813C0 48.343443 42.655979 0 102.37435 0h634.15222C801.932405 0 853.119579 48.343443 853.119579 108.061813v19.906124c0 14.21866-11.374928 28.437319-31.281051 28.437319 2.843732 0 2.843732 0 0 0z" fill="#666666" p-id="3473"></path></svg>