<?xml version="1.0" standalone="no"?><!DOCTYPE svg PUBLIC "-//W3C//DTD SVG 1.1//EN" "http://www.w3.org/Graphics/SVG/1.1/DTD/svg11.dtd"><svg t="1685772859915" class="icon" viewBox="0 0 1024 1024" version="1.1" xmlns="http://www.w3.org/2000/svg" p-id="3194" xmlns:xlink="http://www.w3.org/1999/xlink" width="200" height="200"><path d="M818.808478 1024H205.191522c-59.657204 0-105.110312-48.293927-105.110312-107.951131V237.09307c0-59.657204 48.293927-107.951131 105.110312-107.951132h42.612288c5.681638-31.249012 25.567373-51.134746 73.861301-51.134746h99.428673c8.522458-51.134746 53.975566-85.224577 105.110312-76.70212 42.612289 8.522458 71.020481 36.93065 76.70212 76.70212h96.587854c51.134746 0 71.020481 17.044915 76.70212 51.134746h42.612288c59.657204 0 105.110312 48.293927 105.110312 107.951132v678.955799c0 59.657204-48.293927 107.951131-105.110312 107.951131zM699.49407 109.256204h-124.996047c8.522458-34.089831-11.363277-68.179662-45.453108-76.70212s-68.179662 11.363277-76.702119 45.453108c-2.840819 8.522458-2.840819 19.885735 0 31.249012h-130.677685c-42.612289 0-48.293927 14.204096-48.293927 39.771469s8.522458 39.771469 48.293927 39.771469h377.828959c34.089831 0 48.293927-11.363277 48.293927-39.771469 0-39.771469-22.726554-39.771469-48.293927-39.771469z m196.016528 127.836866c0-59.657204-51.134746-76.70212-76.70212-76.70212h-39.771469c-2.840819 36.93065-25.567373 53.975566-76.70212 53.975566H324.50593c-51.134746 0-71.020481-22.726554-76.70212-53.975566H205.191522c-42.612289 0-76.70212 28.408192-76.70212 76.70212v678.955799c0 53.975566 36.93065 76.70212 76.70212 76.702119h610.776137c34.089831 0 76.70212-22.726554 76.70212-76.702119l2.840819-678.955799zM844.375851 739.918076c-2.840819 0-8.522458-2.840819-11.363276-5.681639-2.840819-2.840819-5.681638-5.681638-5.681639-11.363277s2.840819-8.522458 5.681639-11.363277c5.681638-5.681638 14.204096-5.681638 19.885734 0 2.840819 2.840819 5.681638 5.681638 5.681639 11.363277s-2.840819 8.522458-5.681639 11.363277c-2.840819 2.840819-5.681638 5.681638-8.522458 5.681639z m-17.044915 62.498023c0-8.522458 5.681638-14.204096 14.204096-14.204096s14.204096 5.681638 14.204096 14.204096v48.293927c0 62.498023-36.93065 107.951131-79.542938 107.951131h-252.832913c-8.522458 0-14.204096-5.681638-14.204096-14.204096s5.681638-14.204096 14.204096-14.204096h252.832913c22.726554 0 51.134746-31.249012 51.134746-76.70212v-51.134746zM744.947178 569.468921c8.522458 0 14.204096 5.681638 14.204096 14.204096s-5.681638 14.204096-14.204096 14.204096H710.857347c-8.522458 0-17.044915-8.522458-17.044915-17.044915s8.522458-14.204096 17.044915-14.204096h34.089831v2.840819z m0-62.498023h-153.404239c-8.522458 0-14.204096-5.681638-14.204096-14.204097s5.681638-14.204096 14.204096-14.204096h156.245058c8.522458 0 14.204096 5.681638 14.204096 14.204096-2.840819 5.681638-8.522458 14.204096-17.044915 14.204097z m0-76.70212H682.449155c-8.522458 0-14.204096-5.681638-14.204097-14.204096s5.681638-14.204096 14.204097-14.204096h59.657204c8.522458 0 14.204096 5.681638 14.204096 14.204096 2.840819 5.681638-2.840819 14.204096-11.363277 14.204096z m-124.996047 0h-153.404239c-8.522458 0-14.204096-5.681638-14.204096-14.204096s5.681638-14.204096 14.204096-14.204096h156.245058c8.522458 0 14.204096 5.681638 14.204097 14.204096-2.840819 5.681638-8.522458 14.204096-17.044916 14.204096z m-213.061443 0H284.734461c-8.522458 0-14.204096-5.681638-14.204097-14.204096s5.681638-14.204096 14.204097-14.204096h122.155227c8.522458-2.840819 17.044915 0 19.885735 8.522457s0 17.044915-5.681639 19.885735h-14.204096zM284.734461 478.562705h62.498023c8.522458 0 14.204096 5.681638 14.204096 14.204096s-5.681638 14.204096-14.204096 14.204097H284.734461c-8.522458 0-14.204096-5.681638-14.204097-14.204097s5.681638-14.204096 14.204097-14.204096z m0 90.906216h153.404239c8.522458 0 14.204096 5.681638 14.204096 14.204096s-5.681638 14.204096-14.204096 14.204096H284.734461c-8.522458 0-17.044915-5.681638-17.044916-14.204096s5.681638-14.204096 17.044916-14.204096z m0 73.8613h62.498023c8.522458 0 14.204096 5.681638 14.204096 14.204097s-5.681638 14.204096-14.204096 14.204096H284.734461c-11.363277 0-19.885735-2.840819-19.885735-14.204096 0-8.522458 8.522458-17.044915 19.885735-14.204097z m124.996046-136.359323c-8.522458 0-14.204096-5.681638-14.204096-14.204097s5.681638-14.204096 14.204096-14.204096H534.726554c8.522458 0 14.204096 5.681638 14.204096 14.204096s-5.681638 14.204096-14.204096 14.204097H409.730507z m258.514551 76.702119c0 8.522458-5.681638 14.204096-14.204096 14.204096h-153.404239c-8.522458 0-14.204096-5.681638-14.204096-14.204096s5.681638-14.204096 14.204096-14.204096h156.245058c2.840819 0 11.363277 5.681638 11.363277 14.204096z m-258.514551 59.657204h107.951131c8.522458 0 14.204096 5.681638 14.204097 14.204097s-5.681638 14.204096-14.204097 14.204096h-110.79195c-8.522458 0-14.204096-5.681638-14.204096-14.204096 0-5.681638 5.681638-14.204096 17.044915-14.204097z" fill="#666666" p-id="3195"></path></svg>